<svg xmlns="http://www.w3.org/2000/svg" version="1.1" xmlns:xlink="http://www.w3.org/1999/xlink" xmlns:svgjs="http://svgjs.com/svgjs" width="1440" height="560" preserveAspectRatio="none" viewBox="0 0 1440 560"><g mask="url(&quot;#SvgjsMask1000&quot;)" fill="none"><rect width="1440" height="560" x="0" y="0" fill="#0e2a47"></rect><g transform="translate(0, 0)" stroke-linecap="round"><path d="M260 125.52 L260 434.48" stroke-width="15" stroke="#3a7cc3"></path><path d="M280 247.5 L280 312.5" stroke-width="15" stroke="#3a7cc3"></path><path d="M300 135.13 L300 424.87" stroke-width="15" stroke="#dd1133"></path><path d="M320 183.08 L320 376.92" stroke-width="15" stroke="#dd1133"></path><path d="M340 183.05 L340 376.95" stroke-width="15" stroke="#dd1133"></path><path d="M360 201.3 L360 358.7" stroke-width="15" stroke="#dd1133"></path><path d="M380 157.18 L380 402.82" stroke-width="15" stroke="#dd1133"></path><path d="M400 223.57 L400 336.43" stroke-width="15" stroke="#dd1133"></path><path d="M420 242.41 L420 317.58" stroke-width="15" stroke="#3a7cc3"></path><path d="M440 168.91 L440 391.1" stroke-width="15" stroke="#3a7cc3"></path><path d="M460 177.45 L460 382.55" stroke-width="15" stroke="#dd1133"></path><path d="M480 205.76 L480 354.24" stroke-width="15" stroke="#3a7cc3"></path><path d="M500 227.88 L500 332.13" stroke-width="15" stroke="#dd1133"></path><path d="M520 198.76 L520 361.24" stroke-width="15" stroke="#dd1133"></path><path d="M540 136.5 L540 423.5" stroke-width="15" stroke="#3a7cc3"></path><path d="M560 138.78 L560 421.22" stroke-width="15" stroke="#3a7cc3"></path><path d="M580 231.49 L580 328.51" stroke-width="15" stroke="#dd1133"></path><path d="M600 122.98 L600 437.02" stroke-width="15" stroke="#3a7cc3"></path><path d="M620 164.7 L620 395.3" stroke-width="15" stroke="#dd1133"></path><path d="M640 260.1 L640 299.9" stroke-width="15" stroke="#3a7cc3"></path><path d="M660 225.32 L660 334.68" stroke-width="15" stroke="#3a7cc3"></path><path d="M680 178.82 L680 381.18" stroke-width="15" stroke="#3a7cc3"></path><path d="M700 245.1 L700 314.89" stroke-width="15" stroke="#dd1133"></path><path d="M720 190.77 L720 369.23" stroke-width="15" stroke="#dd1133"></path><path d="M740 130.21 L740 429.79" stroke-width="15" stroke="#3a7cc3"></path><path d="M760 246.66 L760 313.34" stroke-width="15" stroke="#3a7cc3"></path><path d="M780 135.47 L780 424.53" stroke-width="15" stroke="#3a7cc3"></path><path d="M800 231.35 L800 328.65" stroke-width="15" stroke="#3a7cc3"></path><path d="M820 243.51 L820 316.49" stroke-width="15" stroke="#3a7cc3"></path><path d="M840 222.19 L840 337.81" stroke-width="15" stroke="#dd1133"></path><path d="M860 245.32 L860 314.68" stroke-width="15" stroke="#dd1133"></path><path d="M880 170.74 L880 389.26" stroke-width="15" stroke="#3a7cc3"></path><path d="M900 212.96 L900 347.04" stroke-width="15" stroke="#dd1133"></path><path d="M920 133.94 L920 426.06" stroke-width="15" stroke="#dd1133"></path><path d="M940 147.65 L940 412.35" stroke-width="15" stroke="#dd1133"></path><path d="M960 257.19 L960 302.81" stroke-width="15" stroke="#3a7cc3"></path><path d="M980 223.88 L980 336.13" stroke-width="15" stroke="#3a7cc3"></path><path d="M1000 141.88 L1000 418.12" stroke-width="15" stroke="#3a7cc3"></path><path d="M1020 218.13 L1020 341.87" stroke-width="15" stroke="#3a7cc3"></path><path d="M1040 198.92 L1040 361.08" stroke-width="15" stroke="#dd1133"></path><path d="M1060 236.5 L1060 323.5" stroke-width="15" stroke="#dd1133"></path><path d="M1080 205.63 L1080 354.37" stroke-width="15" stroke="#dd1133"></path><path d="M1100 144.54 L1100 415.46" stroke-width="15" stroke="#dd1133"></path><path d="M1120 232.5 L1120 327.5" stroke-width="15" stroke="#dd1133"></path><path d="M1140 106.83 L1140 453.17" stroke-width="15" stroke="#dd1133"></path><path d="M1160 196.26 L1160 363.74" stroke-width="15" stroke="#3a7cc3"></path><path d="M1180 161.69 L1180 398.31" stroke-width="15" stroke="#dd1133"></path></g></g><defs><mask id="SvgjsMask1000"><rect width="1440" height="560" fill="#ffffff"></rect></mask></defs></svg>